<svg width="101" height="101" viewBox="0 0 101 101" fill="none" xmlns="http://www.w3.org/2000/svg">
<path opacity="0.1" d="M50.5 100.966C78.1142 100.966 100.5 78.5805 100.5 50.9663C100.5 23.3521 78.1142 0.966309 50.5 0.966309C22.8858 0.966309 0.5 23.3521 0.5 50.9663C0.5 78.5805 22.8858 100.966 50.5 100.966Z" fill="#FD4C5C"/>
<path fill-rule="evenodd" clip-rule="evenodd" d="M31.2845 31.5974C29.82 33.0619 29.82 35.4189 29.82 40.1329V61.7996C29.82 66.5136 29.82 68.8706 31.2845 70.3351C32.7488 71.7996 35.106 71.7996 39.82 71.7996H61.4867C66.2007 71.7996 68.5577 71.7996 70.0222 70.3351C71.4867 68.8706 71.4867 66.5136 71.4867 61.7996V40.1329C71.4867 35.4189 71.4867 33.0619 70.0222 31.5974C68.5577 30.1329 66.2007 30.1329 61.4867 30.1329H39.82C35.106 30.1329 32.7488 30.1329 31.2845 31.5974ZM62.4567 45.6408C62.9673 44.8749 62.7603 43.8401 61.9945 43.3294C61.2287 42.8189 60.1938 43.0259 59.6832 43.7918L52.943 53.9021L51.345 50.7063C50.2005 48.4171 47.0098 48.2184 45.5902 50.3481L38.8498 60.4584C38.3393 61.2243 38.5463 62.2591 39.3122 62.7698C40.078 63.2803 41.1128 63.0733 41.6233 62.3074L48.3637 52.1971L49.9615 55.3929C51.1062 57.6821 54.2968 57.8808 55.7165 55.7511L62.4567 45.6408Z" fill="#FF555F"/>
</svg>
