<svg width="101" height="101" viewBox="0 0 101 101" fill="none" xmlns="http://www.w3.org/2000/svg">
<path opacity="0.1" d="M50.5 100.918C78.1142 100.918 100.5 78.5322 100.5 50.918C100.5 23.3037 78.1142 0.917969 50.5 0.917969C22.8858 0.917969 0.5 23.3037 0.5 50.918C0.5 78.5322 22.8858 100.918 50.5 100.918Z" fill="#2B59FF"/>
<path d="M49.667 54.668H45.3002C42.9528 54.668 41.7792 54.668 41.2875 53.8988C40.796 53.1295 41.2892 52.0645 42.2753 49.9343L48.9108 35.6015C49.5345 34.2543 49.8463 33.5808 50.1733 33.6528C50.5003 33.7248 50.5003 34.4671 50.5003 35.9515V46.3346C50.5003 46.7275 50.5003 46.924 50.6225 47.046C50.7445 47.168 50.9408 47.168 51.3337 47.168H55.7007C58.048 47.168 59.2217 47.168 59.7133 47.9371C60.2048 48.7065 59.7117 49.7715 58.7255 51.9016L52.09 66.2345C51.4663 67.5816 51.1545 68.2551 50.8275 68.1831C50.5003 68.1111 50.5003 67.3688 50.5003 65.8845V55.5013C50.5003 55.1085 50.5003 54.912 50.3783 54.79C50.2563 54.668 50.0598 54.668 49.667 54.668Z" fill="#2B59FF"/>
</svg>
