<svg width="55" height="55" viewBox="0 0 55 55" fill="none" xmlns="http://www.w3.org/2000/svg">
<circle cx="27.5" cy="27.5" r="27.5" fill="#35F662"/>
<circle cx="27.5" cy="27.5" r="22" fill="white"/>
<path fill-rule="evenodd" clip-rule="evenodd" d="M25.7105 35.5743C25.9076 35.9439 26.1051 36.2769 26.2938 36.5719C24.2887 36.121 22.5489 34.9693 21.345 33.3876C22.1396 32.9402 23.1572 32.4764 24.3807 32.137C24.7284 33.5007 25.2189 34.6526 25.7105 35.5743ZM27.2271 34.7655C26.8 33.9649 26.372 32.9651 26.0637 31.7804C26.7275 31.6818 27.4361 31.625 28.1876 31.625C28.9391 31.625 29.6476 31.6818 30.3113 31.7803C30.003 32.9651 29.575 33.9649 29.1479 34.7655C28.8056 35.4075 28.4644 35.92 28.1875 36.2951C27.9106 35.92 27.5694 35.4075 27.2271 34.7655ZM25.6094 28.1875C25.6094 28.8568 25.6544 29.492 25.7338 30.0918C26.4996 29.9743 27.3183 29.9062 28.1876 29.9062C29.0568 29.9062 29.8755 29.9742 30.6412 30.0918C30.7206 29.4919 30.7656 28.8568 30.7656 28.1875C30.7656 27.5182 30.7206 26.8831 30.6412 26.2832C29.8755 26.4007 29.0568 26.4688 28.1876 26.4688C27.3183 26.4688 26.4996 26.4007 25.7338 26.2832C25.6544 26.883 25.6094 27.5182 25.6094 28.1875ZM24.0475 25.9288C23.9477 26.6381 23.8906 27.3916 23.8906 28.1875C23.8906 28.9834 23.9477 29.7369 24.0475 30.4462C22.5882 30.8379 21.3799 31.3903 20.4454 31.9219C19.8997 30.7927 19.5938 29.5258 19.5938 28.1875C19.5938 26.8492 19.8997 25.5824 20.4454 24.4531C21.3798 24.9846 22.5882 25.537 24.0475 25.9288ZM26.0637 24.5947C26.7275 24.6932 27.4361 24.75 28.1876 24.75C28.9391 24.75 29.6476 24.6932 30.3113 24.5947C30.003 23.41 29.575 22.4101 29.1479 21.6095C28.8056 20.9675 28.4644 20.4549 28.1875 20.08C27.9106 20.4549 27.5694 20.9675 27.2271 21.6095C26.8 22.4101 26.372 23.41 26.0637 24.5947ZM32.3275 25.9289C32.4273 26.6382 32.4844 27.3917 32.4844 28.1875C32.4844 28.9834 32.4273 29.7368 32.3275 30.4461C33.7867 30.8379 34.9951 31.3903 35.9297 31.9219C36.4753 30.7926 36.7812 29.5257 36.7812 28.1875C36.7812 26.8493 36.4753 25.5824 35.9297 24.4531C34.9952 24.9846 33.7868 25.5371 32.3275 25.9289ZM35.03 22.9875C34.2353 23.4349 33.2177 23.8987 31.9944 24.2381C31.6467 22.8743 31.1561 21.7224 30.6646 20.8007C30.4674 20.4311 30.2699 20.0982 30.0812 19.8031C32.0863 20.254 33.8261 21.4057 35.03 22.9875ZM24.3806 24.2381C23.1573 23.8987 22.1397 23.4349 21.345 22.9874C22.5489 21.4057 24.2887 20.254 26.2937 19.8031C26.1051 20.0982 25.9076 20.4311 25.7105 20.8007C25.2189 21.7223 24.7284 22.8743 24.3806 24.2381ZM31.9944 32.1368C31.6467 33.5007 31.1561 34.6526 30.6646 35.5743C30.4674 35.9439 30.2699 36.2769 30.0812 36.5719C32.0863 36.121 33.8261 34.9692 35.0301 33.3875C34.2354 32.9401 33.2178 32.4764 31.9944 32.1368ZM28.1875 38.5C33.883 38.5 38.5 33.883 38.5 28.1875C38.5 22.4921 33.883 17.875 28.1875 17.875C22.4921 17.875 17.875 22.4921 17.875 28.1875C17.875 33.883 22.4921 38.5 28.1875 38.5Z" fill="#35F662"/>
</svg>
