<svg width="101" height="101" viewBox="0 0 101 101" fill="none" xmlns="http://www.w3.org/2000/svg">
<path opacity="0.19" d="M50.5 100.918C78.1142 100.918 100.5 78.5322 100.5 50.918C100.5 23.3037 78.1142 0.917969 50.5 0.917969C22.8858 0.917969 0.5 23.3037 0.5 50.918C0.5 78.5322 22.8858 100.918 50.5 100.918Z" fill="#00BB98"/>
<path d="M49.1667 40C54.2292 40 58.3333 44.1041 58.3333 49.1667M59.5411 59.534L67.5 67.5M63.8333 49.1667C63.8333 57.2669 57.2669 63.8333 49.1667 63.8333C41.0665 63.8333 34.5 57.2669 34.5 49.1667C34.5 41.0665 41.0665 34.5 49.1667 34.5C57.2669 34.5 63.8333 41.0665 63.8333 49.1667Z" stroke="#00B694" stroke-width="3.66667" stroke-linecap="round" stroke-linejoin="round"/>
</svg>
