<svg width="131" height="25" viewBox="0 0 131 25" fill="none" xmlns="http://www.w3.org/2000/svg">
<path d="M39.6449 1.45378e-09C36.8735 1.45378e-09 34.9574 1.03998 33.7941 2.2595C32.8019 3.2997 31.707 5.09328 31.707 8.03447C31.707 9.25399 31.8438 10.9397 33.0071 12.2669C33.9309 13.3429 35.3338 13.8809 36.2919 14.2037L37.8314 14.7058C39.3027 15.1721 40.1924 15.4233 40.774 15.9613C41.2531 16.3917 41.424 16.9297 41.424 17.396C41.424 18.0058 41.1846 18.5437 40.8423 18.9024C40.466 19.3328 39.7475 19.7274 38.5499 19.7274C36.497 19.7274 34.5811 18.5438 33.3152 17.2884L30.783 22.3099C32.4254 23.4936 33.8626 24.0675 34.239 24.211C35.9155 24.8566 37.2841 25 38.7211 25C41.1504 25 43.5112 24.6055 45.4615 22.561C47.1038 20.8393 47.6171 18.7232 47.6171 16.5352C47.6171 14.8853 47.3091 13.5581 46.1458 12.2669C44.9483 10.9039 43.4428 10.3658 42.0058 9.8995L40.1924 9.32553C38.7895 8.89513 38.3789 8.46473 38.2078 8.24952C37.9683 7.92672 37.8999 7.60386 37.8999 7.17344C37.8999 6.63542 38.1394 6.24105 38.4816 5.88238C39.0633 5.3085 39.8502 5.16499 40.4319 5.16499C41.2188 5.16499 42.5532 5.30844 44.3324 6.77897L46.6933 1.93681C44.5378 0.753183 41.9031 1.45378e-09 39.6449 1.45378e-09ZM83.0781 1.45378e-09C82.9783 9.61496e-05 82.8827 0.0397369 82.8122 0.11028L75.7103 7.21216C75.6397 7.28265 75.5999 7.37829 75.5998 7.47809V17.5216C75.5998 17.5711 75.6095 17.6201 75.6285 17.6658C75.6475 17.7115 75.6753 17.753 75.7103 17.7879L82.8122 24.8901C82.8828 24.9605 82.9784 25 83.0781 24.9999H93.1216C93.2214 25.0001 93.3172 24.9606 93.3879 24.8901L100.49 17.7879C100.561 17.7172 100.6 17.6214 100.6 17.5216V7.47809C100.6 7.3784 100.561 7.28278 100.49 7.21216L93.3879 0.11028C93.3529 0.075303 93.3114 0.0475361 93.2657 0.028608C93.22 0.00967991 93.171 -4.33211e-06 93.1216 1.45378e-09H83.0781ZM0 0.537891V24.4621H9.51197C12.3176 24.4621 14.4732 23.5294 15.7049 22.2023C16.5603 21.3056 17.3814 19.7633 17.3814 17.5036C17.3814 15.6026 16.7656 14.0603 15.8417 13.1277C15.1232 12.4103 13.9257 11.8364 12.7282 11.6929C13.5836 11.2983 14.0968 10.7604 14.5758 9.82787C15.0548 8.82356 15.226 7.92678 15.226 6.8866C15.226 4.77037 14.6099 3.29986 13.823 2.40315C12.4202 0.789091 10.47 0.537891 8.82768 0.537891H0ZM21.1173 0.537891V24.4621H27.0366V0.537891H21.1173ZM51.323 0.537891V24.4621H57.2422V14.7776H65.7961V24.4621H71.7495V0.537891H65.7961V9.46917H57.2422V0.537891H51.323ZM104.45 0.537891V24.4621H110.369V16.5352H114.099C115.878 16.5352 117.999 16.284 119.779 14.4547C121.558 12.6254 121.797 10.4016 121.797 8.50058C121.797 6.49196 121.455 4.48339 119.676 2.68998C117.931 0.932443 115.878 0.537891 113.894 0.537891H104.45ZM124.966 0.537891V24.4621H130.885V0.537891H124.966ZM83.2338 0.753093H92.966L99.8475 7.63456V17.3662L92.966 24.2475H83.2346L76.3529 17.3662V7.63381L83.2338 0.753093ZM83.9398 1.46844C83.9398 4.93376 84.5016 7.11383 85.3207 8.66981C85.4241 8.86645 85.532 9.05335 85.6434 9.23201C85.6696 8.88912 85.7671 8.55546 85.9297 8.25247C86.0923 7.94948 86.3165 7.68386 86.5878 7.47258C86.6051 6.88267 86.7975 6.3766 87.2559 6.02972C87.1624 6.39564 87.1221 6.77229 87.1221 7.15812C87.431 7.02341 87.7641 6.9534 88.101 6.95235C88.4379 6.95267 88.7711 7.02196 89.0801 7.15593C89.0801 6.77084 89.0393 6.39482 88.9463 6.02957C89.4055 6.37694 89.599 6.88392 89.615 7.47477C89.8855 7.68537 90.1091 7.94996 90.2716 8.25179C90.4342 8.55361 90.532 8.88604 90.559 9.22778C90.6698 9.05019 90.7766 8.86479 90.8793 8.66966C91.6984 7.11368 92.2602 4.93351 92.2602 1.46822L83.9398 1.46844ZM83.1238 1.87537L77.4097 7.58935C77.8423 8.40558 78.541 8.89665 79.4775 9.28228C81.1735 9.98072 83.6034 10.199 86.013 11.0684C85.4989 10.4973 85.0144 9.84579 84.5962 9.0513C83.7363 7.41798 83.1666 5.20185 83.1238 1.87537ZM93.0762 1.87537C93.0334 5.2018 92.4635 7.41773 91.6037 9.05107C91.1838 9.84858 90.6975 10.5022 90.1812 11.0748C92.5967 10.2 95.0342 9.98246 96.7345 9.28228C97.6679 8.89793 98.3652 8.40871 98.7981 7.59727L93.0762 1.87537ZM5.91929 5.30833H7.01425C8.17757 5.30833 8.89596 5.63116 9.27232 6.02572C9.61449 6.42028 9.81979 7.02995 9.81979 7.6397C9.81979 8.17772 9.64865 8.82333 9.27232 9.21789C8.65646 9.89939 7.63013 9.97121 7.01425 9.97121H5.91929V5.30833ZM110.369 5.55939H112.388C113.141 5.55939 114.236 5.66699 114.92 6.4202C115.536 7.06583 115.604 7.92667 115.604 8.57229C115.604 9.1462 115.57 10.1146 114.852 10.7602C114.133 11.4417 112.97 11.5136 112.354 11.5136H110.369V5.55939ZM77.0683 8.547V16.346C77.6052 15.6786 78.3302 15.2159 79.1442 14.8808C80.8623 14.1732 83.0151 13.9221 85.1149 13.2692C85.2516 12.7462 85.4623 12.2639 85.7352 11.8495C83.4511 11.0419 81.0477 10.8144 79.1656 10.0394C78.3408 9.6997 77.6073 9.22897 77.0683 8.547V8.547ZM99.1318 8.56179C98.594 9.23551 97.8652 9.70189 97.0465 10.039C95.1625 10.8149 92.7558 11.042 90.4694 11.8517C90.7407 12.2659 90.9501 12.747 91.0859 13.2688C93.1855 13.9214 95.3379 14.1727 97.0559 14.8802C97.8698 15.2153 98.5948 15.6782 99.1318 16.3456V8.56179ZM84.9562 14.1885C82.9003 14.7933 80.9087 15.0391 79.4558 15.6374C78.5046 16.0291 77.7989 16.5297 77.368 17.3691L83.1238 23.1249C83.1666 19.7914 83.7362 17.5702 84.596 15.9333C84.7143 15.7082 84.8379 15.4948 84.9659 15.2912C84.9436 15.0914 84.9318 14.8899 84.9306 14.6879C84.9319 14.5209 84.9405 14.3542 84.9563 14.1885H84.9562ZM91.2455 14.1885C91.261 14.354 91.2692 14.5205 91.2703 14.6873C91.2692 14.8895 91.2576 15.0914 91.2354 15.2914C91.3633 15.4947 91.4865 15.7079 91.6046 15.9327C92.4644 17.5696 93.0342 19.7907 93.0769 23.1242L98.8328 17.3685C98.4019 16.5291 97.696 16.0284 96.7448 15.6367C95.2922 15.0386 93.3015 14.7929 91.2463 14.1885H91.2455ZM5.91929 14.5977H7.1511C8.62234 14.5977 10.0936 14.6336 10.8121 15.3869C11.1543 15.7456 11.3938 16.3553 11.3938 17.1085C11.3938 17.79 11.1885 18.328 10.9147 18.6508C10.2647 19.44 8.89607 19.6193 7.25371 19.6193H5.91929V14.5977ZM85.2295 16.4923C84.4601 18.0394 83.9398 20.1891 83.9398 23.531H92.2603C92.2603 20.1891 91.7398 18.0394 90.9704 16.4923C90.7161 17.2316 90.3109 17.8574 89.8024 18.2962C89.2939 18.7351 88.7032 18.9687 88.0998 18.9697C87.4965 18.9686 86.9059 18.735 86.3974 18.2961C85.889 17.8573 85.4838 17.2315 85.2295 16.4923V16.4923Z" fill="black"/>
</svg>
