<svg width="101" height="101" viewBox="0 0 101 101" fill="none" xmlns="http://www.w3.org/2000/svg">
<path opacity="0.1" d="M50.5 100.966C78.1142 100.966 100.5 78.5805 100.5 50.9663C100.5 23.3521 78.1142 0.966309 50.5 0.966309C22.8858 0.966309 0.5 23.3521 0.5 50.9663C0.5 78.5805 22.8858 100.966 50.5 100.966Z" fill="#FFC83E"/>
<path d="M46.8925 41.0074C48.2302 37.6726 48.899 36.0053 49.9857 35.7743C50.2714 35.7134 50.5667 35.7134 50.8524 35.7743C51.939 36.0053 52.6079 37.6726 53.9455 41.0074C54.7062 42.9039 55.0865 43.8521 55.7982 44.4969C55.9979 44.6779 56.2145 44.8389 56.4454 44.9781C57.2679 45.4739 58.2947 45.5658 60.3485 45.7498C63.825 46.0611 65.5634 46.2168 66.0942 47.2079C66.2042 47.4131 66.2789 47.6354 66.3154 47.8654C66.4914 48.9759 65.2134 50.1386 62.6575 52.4638L61.9479 53.1094C60.753 54.1966 60.1555 54.7401 59.81 55.4184C59.6027 55.8254 59.4637 56.2636 59.3985 56.7156C59.29 57.4691 59.4649 58.2576 59.8149 59.8348L59.9399 60.3981C60.5674 63.2263 60.881 64.6404 60.4894 65.3356C60.1377 65.9599 59.4897 66.3596 58.7739 66.3938C57.9769 66.4318 56.854 65.5168 54.6082 63.6869C53.1285 62.4813 52.3889 61.8784 51.5675 61.6429C50.817 61.4276 50.0212 61.4276 49.2705 61.6429C48.4494 61.8784 47.7095 62.4813 46.2299 63.6869C43.9842 65.5168 42.8612 66.4318 42.0644 66.3938C41.3485 66.3596 40.7005 65.9599 40.3487 65.3356C39.957 64.6404 40.2707 63.2263 40.8982 60.3981L41.0234 59.8348C41.3732 58.2576 41.5482 57.4691 41.4395 56.7156C41.3744 56.2636 41.2355 55.8254 41.0282 55.4184C40.6825 54.7401 40.0852 54.1966 38.8902 53.1094L38.1805 52.4638C35.6247 50.1386 34.3469 48.9759 34.5229 47.8654C34.5592 47.6354 34.634 47.4131 34.7439 47.2079C35.2747 46.2168 37.013 46.0611 40.4897 45.7498C42.5434 45.5658 43.5702 45.4739 44.3929 44.9781C44.6235 44.8389 44.8402 44.6779 45.0399 44.4969C45.7515 43.8521 46.1319 42.9039 46.8925 41.0074Z" fill="#FFCC3C" stroke="#FFCC3C" stroke-width="2"/>
</svg>
