<svg width="55" height="55" viewBox="0 0 55 55" fill="none" xmlns="http://www.w3.org/2000/svg">
<circle cx="27.5" cy="27.5" r="27.5" fill="#6835F6"/>
<circle cx="27.5" cy="27.5" r="22" fill="white"/>
<path d="M17.875 29.7917C17.875 29.1499 17.875 28.8291 17.9999 28.584C18.1097 28.3684 18.285 28.1932 18.5006 28.0833C18.7457 27.9584 19.0666 27.9584 19.7083 27.9584H20.625C21.2667 27.9584 21.5876 27.9584 21.8327 28.0833C22.0483 28.1932 22.2236 28.3684 22.3334 28.584C22.4583 28.8291 22.4583 29.1499 22.4583 29.7917V35.2917C22.4583 35.9335 22.4583 36.2543 22.3334 36.4994C22.2236 36.7151 22.0483 36.8903 21.8327 37.0001C21.5876 37.125 21.2667 37.125 20.625 37.125H19.7083C19.0666 37.125 18.7457 37.125 18.5006 37.0001C18.285 36.8903 18.1097 36.7151 17.9999 36.4994C17.875 36.2543 17.875 35.9335 17.875 35.2917V29.7917Z" stroke="#6835F6" stroke-width="2.29167" stroke-linecap="round" stroke-linejoin="round"/>
<path d="M25.8959 18.3333C25.8959 17.6916 25.8959 17.3707 26.0208 17.1256C26.1307 16.91 26.3059 16.7347 26.5215 16.6249C26.7666 16.5 27.0874 16.5 27.7292 16.5H28.6459C29.2877 16.5 29.6085 16.5 29.8536 16.6249C30.0692 16.7347 30.2444 16.91 30.3543 17.1256C30.4792 17.3707 30.4792 17.6916 30.4792 18.3333V35.2917C30.4792 35.9334 30.4792 36.2543 30.3543 36.4994C30.2444 36.715 30.0692 36.8902 29.8536 37.0001C29.6085 37.125 29.2877 37.125 28.6459 37.125H27.7292C27.0874 37.125 26.7666 37.125 26.5215 37.0001C26.3059 36.8902 26.1307 36.715 26.0208 36.4994C25.8959 36.2543 25.8959 35.9334 25.8959 35.2917V18.3333Z" stroke="#6835F6" stroke-width="2.29167" stroke-linecap="round" stroke-linejoin="round"/>
<path d="M33.9166 25.2083C33.9166 24.5666 33.9166 24.2457 34.0415 24.0006C34.1514 23.785 34.3266 23.6097 34.5423 23.4999C34.7873 23.375 35.1082 23.375 35.75 23.375H36.6666C37.3084 23.375 37.6292 23.375 37.8743 23.4999C38.09 23.6097 38.2652 23.785 38.3751 24.0006C38.5 24.2457 38.5 24.5666 38.5 25.2083V35.2917C38.5 35.9334 38.5 36.2543 38.3751 36.4994C38.2652 36.715 38.09 36.8902 37.8743 37.0001C37.6292 37.125 37.3084 37.125 36.6666 37.125H35.75C35.1082 37.125 34.7873 37.125 34.5423 37.0001C34.3266 36.8902 34.1514 36.715 34.0415 36.4994C33.9166 36.2543 33.9166 35.9334 33.9166 35.2917V25.2083Z" stroke="#6835F6" stroke-width="2.29167" stroke-linecap="round" stroke-linejoin="round"/>
</svg>
