<svg width="25" height="26" viewBox="0 0 25 26" fill="none" xmlns="http://www.w3.org/2000/svg">
<path d="M12.5 22.9429C18.2529 22.9429 22.9166 18.2792 22.9166 12.5263C22.9166 6.77332 18.2529 2.10962 12.5 2.10962C6.74701 2.10962 2.08331 6.77332 2.08331 12.5263C2.08331 18.2792 6.74701 22.9429 12.5 22.9429Z" fill="#0AB82C"/>
<path d="M8.53127 17.5054H10.0833C11.2188 17.5054 12.1042 16.62 12.1042 15.4846V13.9325C12.1042 12.7971 11.2188 11.9117 10.0833 11.9117H8.09377C8.1771 10.0262 8.6146 9.74501 9.87502 9.00542C10.25 8.78667 10.3646 8.30754 10.1459 7.93254C10 7.68254 9.7396 7.54706 9.46877 7.54706C9.33335 7.54706 9.19795 7.57835 9.07295 7.65127C7.20836 8.75543 6.51044 9.47419 6.51044 12.6825V15.4638C6.51044 16.5992 7.41669 17.5054 8.53127 17.5054Z" fill="white"/>
<path d="M14.9176 17.5054H16.4697C17.6051 17.5054 18.4905 16.62 18.4905 15.4846V13.9325C18.4905 12.7971 17.6051 11.9117 16.4697 11.9117H14.48C14.5633 10.0262 15.0009 9.74501 16.2613 9.00542C16.6363 8.78667 16.7508 8.30754 16.5321 7.93254C16.3862 7.68254 16.1259 7.54706 15.8551 7.54706C15.7197 7.54706 15.5843 7.57835 15.4593 7.65127C13.5947 8.75543 12.8968 9.47419 12.8968 12.6825V15.4638C12.9072 16.5992 13.8134 17.5054 14.9176 17.5054Z" fill="white"/>
</svg>
